<?xml version="1.0" encoding="utf-8"?>
<!-- Generator: Adobe Illustrator 24.0.1, SVG Export Plug-In . SVG Version: 6.00 Build 0)  -->
<svg version="1.1" id="Layer_1" xmlns="http://www.w3.org/2000/svg" xmlns:xlink="http://www.w3.org/1999/xlink" x="0px" y="0px"
	 viewBox="0 0 512 512" style="enable-background:new 0 0 512 512;" xml:space="preserve">
<g>
	<g>
		<g>
			<path style="fill:#C65E18;" d="M155.7,116C99,173.5,64.3,242.6,53.5,309.3l61.8,16.2c15.9-54.9,47.5-109.6,93.9-156.6
				S310,89.7,364.7,73.2l-16.9-61.6C281.1,23.2,212.4,58.6,155.7,116z"/>
		</g>
		<g>
			<path d="M115.3,333c-0.6,0-1.3-0.1-1.9-0.2l-61.8-16.2c-3.7-1-6.1-4.6-5.5-8.5c11.5-70.9,48.5-141,104.3-197.4l0,0
				C206.1,54.4,275.7,16.5,346.5,4.1c3.8-0.7,7.5,1.7,8.5,5.4l16.9,61.6c1.1,3.9-1.2,8-5.1,9.2c-55.6,16.8-108.3,49.3-152.3,93.9
				s-75.8,97.6-92,153.4C121.6,330.9,118.6,333,115.3,333z M62.1,303.8l48.2,12.6c17.4-55.6,49.7-108.3,93.7-152.8
				c43.9-44.5,96.2-77.4,151.6-95.5l-13.2-48C277,33.2,212.8,68.9,161,121.3l0,0C109.2,173.7,74.3,238.3,62.1,303.8z M155.7,116
				L155.7,116L155.7,116z"/>
		</g>
	</g>
	<g>
		<g>
			<path d="M91,282.3c-0.7,0-1.5-0.1-2.2-0.3c-4-1.2-6.2-5.4-5-9.4c12.5-40.7,34.3-80.7,63-115.8c2.6-3.2,7.4-3.7,10.6-1.1
				c3.2,2.6,3.7,7.3,1.1,10.6C131,199.8,110.2,238.1,98.2,277C97.2,280.2,94.2,282.3,91,282.3z M172.1,149.7c-1.8,0-3.6-0.6-5-1.9
				c-3.1-2.8-3.3-7.5-0.5-10.6c3.8-4.2,7.8-8.4,11.8-12.5c2.9-2.9,7.7-3,10.6-0.1c2.9,2.9,3,7.7,0.1,10.6c-3.9,3.9-7.7,7.9-11.3,12
				C176.2,148.9,174.2,149.7,172.1,149.7z"/>
		</g>
	</g>
	<g>
		<g>
			<path style="fill:#F4E190;" d="M458.5,415.3L364.7,73.2C310,89.7,255.6,122,209.2,168.9s-78,101.7-93.9,156.6l51.2,13.4
				c20.4,5.3,34.5,24,34.1,45.1l-2,101.6c-0.4,7.8,5.5,14.4,13.3,14.9l0,0c7.8,0.4,14.4-5.5,14.9-13.3l3-53.8
				c0.3-5.3,4.5-9.7,9.8-9.7c5.8,0,10.3,4.8,10,10.5l-1.2,22c-0.4,6.8,4.8,13.1,11.5,13.6c7,0.5,13-4.8,13.4-11.8l3-52.9
				c0.3-5.4,4.8-9.7,10.2-9.7h0c8.9,0,16,7.5,15.5,16.4l-0.3,4.9c-0.5,8.1,5.7,15,13.8,15.4l0,0c8.1,0.5,15-5.7,15.4-13.8l1.1-19.2
				c0-0.1,0-0.1,0-0.2c0.6-8.5,9-14.3,17.2-12.2L458.5,415.3z"/>
		</g>
		<g>
			<path d="M212.8,508c-0.4,0-0.8,0-1.2,0c-5.8-0.3-11-2.9-14.9-7.2c-3.8-4.3-5.7-9.7-5.5-15.4l2-101.5
				c0.3-17.7-11.4-33.2-28.5-37.7l-51.2-13.4c-2-0.5-3.6-1.8-4.6-3.6s-1.2-3.8-0.7-5.8c16.9-58.2,50-113.4,95.8-159.8
				c45.8-46.3,100.6-80.1,158.6-97.7c1.9-0.6,4-0.4,5.8,0.6c1.8,1,3.1,2.6,3.6,4.6l93.9,342.1c0.7,2.6,0,5.3-1.9,7.3
				c-1.9,1.9-4.6,2.7-7.2,2L347.4,394c-1.9-0.5-3.8-0.1-5.4,1c-0.9,0.6-2.3,2-2.5,4.4c0,0,0,0.1,0,0.1l-1.1,19.3
				c-0.3,5.9-2.9,11.3-7.3,15.2c-4.4,3.9-10.1,5.9-16,5.6c-5.9-0.3-11.3-2.9-15.2-7.3c-3.9-4.4-5.9-10.1-5.6-16l0.3-4.9
				c0.1-2.2-0.7-4.4-2.2-6c-1.5-1.6-3.6-2.5-5.8-2.5c-1.5,0-2.7,1.1-2.7,2.6l-3,52.9c-0.3,5.4-2.7,10.4-6.8,13.9s-9.3,5.3-14.7,4.9
				c-10.6-0.8-19.1-10.6-18.5-21.5l1.2-22c0.1-0.9-0.4-1.5-0.7-1.8c-0.3-0.3-0.9-0.7-1.8-0.7c0,0,0,0,0,0c-1.2,0-2.3,1.2-2.4,2.6
				l-3,53.8c-0.3,5.8-2.9,11-7.2,14.9C223.1,506.1,218.1,508,212.8,508z M124.8,320.2l43.7,11.4c23.9,6.2,40.2,27.8,39.7,52.5
				l-2,101.6c0,0.1,0,0.2,0,0.3c-0.2,3.6,2.6,6.7,6.2,6.9c1.8,0.1,3.4-0.5,4.8-1.7c1.3-1.2,2.1-2.8,2.2-4.5l3-53.8
				c0.5-9.3,8.1-16.7,17.2-16.8c0,0,0.1,0,0.1,0c4.8,0,9.3,2,12.6,5.4c3.3,3.5,5.1,8.2,4.8,13l-1.2,22c-0.2,2.8,2,5.5,4.6,5.7
				c1.3,0.1,2.7-0.3,3.7-1.2c1-0.9,1.6-2.1,1.7-3.5l3-52.9c0.5-9.4,8.3-16.7,17.7-16.7c6.3,0,12.4,2.6,16.7,7.2
				c4.3,4.6,6.6,10.8,6.3,17.1l-0.3,4.9c-0.2,3.9,2.8,7.3,6.7,7.5c1.9,0.1,3.7-0.5,5.1-1.8c1.4-1.3,2.3-3,2.4-4.9l1.1-19.5
				c0.4-6.2,3.6-11.9,8.7-15.6c5.2-3.7,11.7-5,17.9-3.3l96.6,25.3L359.5,82.7c-52.9,17.4-102.9,48.9-144.9,91.5
				S141.5,267.1,124.8,320.2z"/>
		</g>
	</g>
	<g>
		<g>
			<circle style="fill:#FF8C4F;" cx="221.2" cy="285.2" r="39.4"/>
		</g>
		<g>
			<path d="M221.2,332c-25.8,0-46.9-21-46.9-46.9s21-46.9,46.9-46.9s46.9,21,46.9,46.9S247,332,221.2,332z M221.2,253.3
				c-17.6,0-31.9,14.3-31.9,31.9c0,17.6,14.3,31.9,31.9,31.9c17.6,0,31.9-14.3,31.9-31.9C253,267.6,238.7,253.3,221.2,253.3z"/>
		</g>
	</g>
	<g>
		<g>
			<circle style="fill:#FF8C4F;" cx="333" cy="178.7" r="32.3"/>
		</g>
		<g>
			<path d="M333,218.5c-22,0-39.8-17.9-39.8-39.8c0-21.9,17.9-39.8,39.8-39.8c21.9,0,39.8,17.9,39.8,39.8
				C372.8,200.6,355,218.5,333,218.5z M333,153.9c-13.7,0-24.8,11.1-24.8,24.8s11.1,24.8,24.8,24.8s24.8-11.1,24.8-24.8
				S346.7,153.9,333,153.9z"/>
		</g>
	</g>
	<g>
		<g>
			<circle style="fill:#FF8C4F;" cx="354.2" cy="324" r="29.6"/>
		</g>
		<g>
			<path d="M354.2,361.1c-20.5,0-37.1-16.7-37.1-37.1c0-20.5,16.7-37.1,37.1-37.1c20.5,0,37.1,16.7,37.1,37.1
				C391.3,344.5,374.7,361.1,354.2,361.1z M354.2,301.9c-12.2,0-22.1,9.9-22.1,22.1s9.9,22.1,22.1,22.1s22.1-9.9,22.1-22.1
				S366.4,301.9,354.2,301.9z"/>
		</g>
	</g>
</g>
</svg>
